<svg id="Icons" xmlns="http://www.w3.org/2000/svg" viewBox="0 0 24 24"><defs><style>.cls-1{fill:#bbdefb;}.cls-2{fill:#309ffb;}</style></defs><title>Snowy</title><path class="cls-1" d="M21.21,9.67A5.49,5.49,0,0,0,16.5,7H14.74a6.61,6.61,0,0,0-.83-1A7,7,0,1,0,9,18h7.5A5.51,5.51,0,0,0,22,12.5,5.36,5.36,0,0,0,21.21,9.67Z"/><path class="cls-2" d="M15.1,17.63,14,17l1.1-.63a1,1,0,0,0-1-1.74l-1.1.64V14a1,1,0,0,0-2,0v1.27l-1.1-.64a1,1,0,0,0-1,1.74L10,17l-1.1.63a1,1,0,0,0,.5,1.87,1,1,0,0,0,.5-.13l1.1-.64V20a1,1,0,0,0,2,0V18.73l1.1.64A1,1,0,0,0,15.46,19,1,1,0,0,0,15.1,17.63Z"/></svg>