<svg id="Icons" xmlns="http://www.w3.org/2000/svg" viewBox="0 0 24 24"><defs><style>.cls-1{fill:#bbdefb;}.cls-2{fill:#53affb;}</style></defs><title>Windy</title><path class="cls-1" d="M21.21,9.67A5.49,5.49,0,0,0,16.5,7H14.74a6.61,6.61,0,0,0-.83-1A7,7,0,1,0,9,18h7.5A5.51,5.51,0,0,0,22,12.5,5.36,5.36,0,0,0,21.21,9.67Z"/><path class="cls-2" d="M9,15H4a1,1,0,0,1,0-2H9a1,1,0,0,0,0-2A1,1,0,0,1,9,9a3,3,0,0,1,0,6Z"/><path class="cls-2" d="M9,21H4a1,1,0,0,1,0-2H9a1,1,0,0,1,0,2Z"/><path class="cls-2" d="M11,18H3a1,1,0,0,1,0-2h8a1,1,0,0,1,0,2Z"/></svg>